<svg xmlns="http://www.w3.org/2000/svg" width="210" height="210" viewBox="0 0 210 210">
  <defs>
    <filter id="begriffe-a" width="100%" height="100%" x="0%" y="0%" filterUnits="objectBoundingBox">
      <feGaussianBlur in="SourceGraphic"/>
    </filter>
  </defs>
  <path fill="#62FF62" fill-rule="evenodd" d="M105,0 C162.989899,-1.06525716e-14 210,47.0101013 210,105 C210,162.989899 162.989899,210 105,210 C47.0101013,210 7.10171439e-15,162.989899 0,105 C-7.10171439e-15,47.0101013 47.0101013,1.06525716e-14 105,0 Z M31.6122287,78.235099 C28.8681026,98.5829133 33.1262293,114.911884 44.6258493,128.146593 C53.0956828,137.894313 61.3959054,144.227248 68.6266865,146.463853 C75.6200123,148.62649 82.8293689,156.424666 84.8414899,158.72467 C96.8674604,155.837368 99.1780011,146.390324 99.5580918,144.135626 L99.5708589,144.058182 L95.4644894,136.818277 C95.4073573,136.717894 89.6388008,126.610909 85.843087,123.722696 C83.581013,122.003857 80.1298773,121.287087 77.3571852,120.709444 C75.4254061,120.307912 73.7560776,119.960974 72.6723531,119.335782 C72.0260463,118.962427 71.1155035,117.999103 69.1158801,115.855837 C64.5917321,111.003991 56.1718892,101.973042 50.456894,101.856809 C49.2589054,101.814542 48.3108696,102.214313 47.4913811,103.024422 C46.2166212,104.283612 45.6203049,105.72948 45.6685101,107.444797 C45.6863639,108.094645 45.7970573,108.767387 45.984522,109.455979 C46.2469726,110.266088 46.5219208,111.003991 46.811152,111.650317 C46.9914752,112.030716 47.1878668,112.414637 47.4021122,112.800319 L47.4487552,112.877587 L47.4967372,112.953535 C50.8240241,118.850597 57.9377628,125.195122 62.0675427,128.836506 L62.3957171,129.125768 L60.6121244,131.096445 C52.5422156,123.985101 44.9864957,116.54619 43.3260941,109.864556 C40.6783784,101.312627 39.5660879,86.8926942 39.8017578,84.6490457 C39.9195928,83.5325047 39.8071139,80.8926074 39.1875878,78.5203981 C38.5519932,76.0883113 37.573606,74.631877 36.4988084,74.5226884 C33.8671612,74.2673281 32.010368,77.4725403 31.6122287,78.235099 Z M174.375317,74.506607 L174.138531,74.521356 C173.065522,74.6305463 172.087137,76.0870029 171.453329,78.519127 C170.83559,80.8913726 170.723111,83.5313103 170.839161,84.6478684 C171.07483,86.8915513 169.962542,101.311705 167.314833,109.863765 C165.682332,116.426185 158.366638,123.717389 150.460636,130.712942 L150.028845,131.094218 L148.245257,129.125272 C152.208786,125.632251 159.337558,119.349226 162.871068,113.433351 L163.149556,112.954552 C163.174551,112.899957 163.206688,112.847123 163.238825,112.792528 C163.45307,112.408601 163.649461,112.026436 163.827998,111.647792 C164.117229,111.001456 164.393962,110.263542 164.654626,109.453421 C164.84209,108.763057 164.952784,108.092065 164.970637,107.442207 C165.018842,105.726864 164.422528,104.280974 163.147771,103.021765 C162.326499,102.211644 161.365968,101.811867 160.18048,101.854134 C154.463713,101.97213 146.043891,111.003218 141.519754,115.853377 C139.521921,117.996675 138.609595,118.960015 137.963289,119.333375 C136.881353,119.958577 135.212028,120.30552 133.280254,120.707058 C130.509354,121.282948 127.058227,121.999729 124.796158,123.720356 C121.056247,126.566952 115.411587,136.401776 115.181609,136.805851 L115.174779,136.817899 L111.066634,144.057915 C111.407641,146.157185 113.628646,155.801147 125.799538,158.722866 C127.811654,156.422827 135.019208,148.624532 142.012517,146.461861 C149.24328,144.226984 157.543483,137.89219 166.015081,128.144321 C177.512888,114.90941 181.771004,98.5801883 179.026885,78.2338235 C178.652876,77.5174695 176.986939,74.6362113 174.607767,74.5100502 L174.375317,74.506607 Z M105.320523,67.5 C92.2413468,67.5 81.6,78.1405514 81.6,91.21875 C81.6,104.296949 92.2413468,114.9375 105.320523,114.9375 C118.397926,114.9375 129.0375,104.296949 129.0375,91.21875 C129.0375,78.1405514 118.397926,67.5 105.320523,67.5 Z M105.320523,70.1592514 C116.931683,70.1592514 126.37805,79.6066854 126.37805,91.21875 C126.37805,102.830815 116.931683,112.278249 105.320523,112.278249 C93.7075904,112.278249 84.2594502,102.830815 84.2594502,91.21875 C84.2594502,79.6066854 93.7075904,70.1592514 105.320523,70.1592514 Z M106.239466,74 L103.583332,74 L103.583332,77.6867824 L100.006405,77.6867824 C98.8872869,77.6867824 97.9133711,77.8693659 97.1129893,78.2257548 C96.3320858,78.5733657 95.6928429,79.0596699 95.2165095,79.6688668 C94.7773619,80.227151 94.4710211,80.8591708 94.283321,81.5947717 C94.0956208,82.3215945 94,83.1432203 94,84.0403373 L94,85.6537435 C94,86.5491049 94.0956208,87.3724863 94.2815502,88.0940423 C94.4692504,88.83491 94.7755912,89.4669298 95.2111972,90.0164359 C95.6893014,90.6291441 96.3267736,91.1154482 97.1059063,91.4665703 C97.9027465,91.8247149 98.8784332,92.0055428 100.004634,92.0055428 L103.581561,92.0055428 L103.581561,101.319057 L95.9318949,101.319057 L95.9318949,103.952473 L103.581561,103.952473 L103.581561,107.6375 L106.237696,107.6375 L106.237696,103.950718 L110.831037,103.950718 C113.704974,103.950718 115.562499,101.777272 115.562499,98.4135217 L115.562499,94.9075672 C115.564268,91.5438172 113.706745,89.3703712 110.832808,89.3703712 L106.239466,89.3703712 L106.239466,80.3201983 L114.492961,80.3201983 L114.492961,77.6867824 L106.239466,77.6867824 L106.239466,74 Z M55.8415942,85.5084652 C56.0486981,90.240556 56.657512,98.8065737 57.5412741,101.77932 C58.1786541,102.179091 58.8160341,102.619367 59.4516287,103.08606 C59.3284376,97.911932 58.8642393,89.5819025 57.5591279,86.9596162 C57.0110169,85.8571641 56.496828,85.4274543 56.2236651,85.3922322 C56.1004741,85.3763823 55.9647853,85.4327377 55.8415942,85.5084652 Z M154.491579,85.3869946 L154.415508,85.3893052 C154.142346,85.4245279 153.628158,85.8560054 153.080049,86.9567132 C151.77494,89.5808008 151.310743,97.9091968 151.185767,103.079882 C151.82136,102.614943 152.458738,102.176421 153.096117,101.774883 C153.981662,98.7985687 154.590475,90.2324198 154.797578,85.5020177 C154.724735,85.4565805 154.64675,85.4187514 154.569022,85.3995621 L154.491579,85.3869946 Z M41.3693197,76.549721 C41.5139354,76.9582975 41.6567656,77.3827239 41.7817421,77.8635058 C42.4494735,80.4206311 42.631582,83.3511108 42.4673272,84.922017 C42.3048578,86.47179 42.9440232,95.127624 44.3509011,102.666917 C44.7008352,102.138585 45.1186137,101.634909 45.6024511,101.15765 C46.2987485,100.469057 47.0950272,99.9777089 47.9555794,99.6571877 C46.5879798,93.8473003 46.475501,80.5227752 46.4683595,78.8955136 C46.4558618,76.0548503 46.0470102,75.1954308 44.3848233,74.5209273 C43.5296272,74.1792728 42.1691691,75.4860132 41.3693197,76.549721 Z M166.256106,74.5178338 C164.595709,75.1905864 164.185073,76.0500191 164.17079,78.8924871 C164.163648,80.5180125 164.054741,93.8180858 162.687144,99.6403901 C163.54948,99.9644385 164.338615,100.4646 165.038482,101.154964 C165.522318,101.632231 165.940095,102.135915 166.290029,102.664255 C167.696903,95.1248461 168.336067,86.4688795 168.173598,84.9208439 C168.009343,83.3481526 168.191452,80.4193891 168.859181,77.8604634 C168.984157,77.3796742 169.125202,76.9570024 169.269817,76.5484196 C168.464614,75.4846956 167.105944,74.1708907 166.256106,74.5178338 Z M110.832808,92.0020316 C112.548671,92.0020316 112.908134,93.5803255 112.908134,94.9058116 L112.908134,98.411766 C112.908134,99.7372521 112.548671,101.315546 110.832808,101.315546 L106.239466,101.315546 L106.239466,92.0020316 L110.832808,92.0020316 Z M49.1732072,81.220173 C49.2731884,86.9367219 49.6552593,95.4816063 50.5925828,99.2257168 C51.8352059,99.2644611 53.1313904,99.5937879 54.4543555,100.145014 C54.127469,98.2115761 53.8640759,95.7768869 53.6589502,93.3437262 L53.5961044,92.5759969 C53.250885,88.2324648 53.090489,84.0633019 53.0849705,82.9495788 C53.0724729,80.5368641 52.6939727,79.9979658 51.4888425,79.5101395 C50.9300192,79.2776736 49.8534363,80.2797427 49.1732072,81.220173 Z M159.152104,79.5071224 C157.945192,79.9967172 157.566693,80.5338627 157.55598,82.9448532 C157.547054,84.7464918 157.131061,94.5436724 156.184813,100.142313 C157.507775,99.5910784 158.803957,99.2599854 160.044791,99.2230017 C160.985683,95.4753115 161.367753,86.9302962 161.465949,81.215421 C160.785721,80.2749762 159.70557,79.2781752 159.152104,79.5071224 Z M103.583332,80.3201983 L103.583332,89.3703712 L100.006405,89.3703712 C99.271541,89.3703712 98.6482349,89.2650346 98.2037751,89.0666506 C97.8230625,88.8946007 97.5238047,88.6716382 97.3077725,88.3960073 C97.0970525,88.1309101 96.9536212,87.8289451 96.8562296,87.4444663 C96.7234229,86.931828 96.6561342,86.327898 96.6561342,85.6519879 L96.6561342,84.0385817 C96.6561342,83.3626716 96.7234229,82.7587415 96.8562296,82.242592 C96.9536212,81.8598689 97.0988232,81.5561482 97.311314,81.2857842 C97.5202632,81.0189314 97.819521,80.7977244 98.2002336,80.6274302 C98.6517764,80.425535 99.2750825,80.3201983 100.006405,80.3201983 L103.583332,80.3201983 Z" filter="url(#begriffe-a)"/>
</svg>
