<svg xmlns="http://www.w3.org/2000/svg" width="210" height="210" viewBox="0 0 210 210">
  <defs>
    <filter id="generation-a" width="100%" height="100%" x="0%" y="0%" filterUnits="objectBoundingBox">
      <feGaussianBlur in="SourceGraphic"/>
    </filter>
  </defs>
  <path fill="#62FF62" fill-rule="evenodd" d="M105,0 C162.989899,-1.06525716e-14 210,47.0101013 210,105 C210,162.989899 162.989899,210 105,210 C47.0101013,210 7.10171439e-15,162.989899 0,105 C-7.10171439e-15,47.0101013 47.0101013,1.06525716e-14 105,0 Z M70.0250297,99.0814449 C69.3400576,99.9620858 68.5432737,100.750113 67.6546942,101.425816 C71.8492449,102.034149 74.9627544,105.617824 74.9701678,109.845986 L74.9701678,109.845986 L74.9701678,132.087138 L74.9647851,132.260017 C74.8736445,133.746845 73.6368774,134.924717 72.123824,134.926442 L72.123824,134.926442 L70.7078676,134.926442 L70.7078676,124.752505 L70.7013527,124.615783 C70.6323908,123.895875 70.0244567,123.332853 69.2846957,123.332853 C68.4986995,123.332853 67.8615238,123.968453 67.8615238,124.752505 L67.8615238,124.752505 L67.8615238,134.926442 L51.9397883,134.926442 L51.9397883,124.752505 L51.9332734,124.615783 C51.8643115,123.895875 51.2563774,123.332853 50.5166164,123.332853 C49.7306203,123.332853 49.0934445,123.968453 49.0934445,124.752505 L49.0934445,124.752505 L49.0934445,134.926442 L47.6926876,134.926442 L47.5193801,134.921073 C46.0288655,134.830158 44.8480733,133.596449 44.8463438,132.087138 L44.8463438,132.087138 L44.8463438,109.845986 L44.8508309,109.582587 C44.983918,105.469812 48.0545857,102.021485 52.1617319,101.425816 C51.2731806,100.750077 50.4764259,99.9620217 49.7914818,99.0814449 C45.1504602,100.633727 42.016772,104.963162 42,109.845986 L42,109.845986 L42,132.087138 L42.0069963,132.368724 C42.0767979,133.772264 42.6664877,135.104134 43.6673496,136.102521 C44.7349356,137.167466 46.1828929,137.765747 47.6926876,137.765747 L47.6926876,137.765747 L47.7333333,137.765747 L47.7333333,153.102491 L47.7320761,153.320351 C47.7720128,156.357631 50.2144497,158.843926 53.2845007,158.919388 C53.3320204,158.92112 53.3798532,158.92112 53.427131,158.92112 C56.5155817,158.919651 59.0394832,156.461822 59.1152217,153.381935 L59.1152217,153.381935 L59.1152217,137.765761 L60.719848,137.765761 L60.719848,153.102491 L60.7185907,153.32035 C60.7585252,156.357604 63.2009206,158.843888 66.2709442,158.919388 C66.3184639,158.92112 66.3662967,158.92112 66.4135745,158.92112 C69.5020252,158.919651 72.0259267,156.461822 72.1016652,153.381935 L72.1016652,153.381935 L72.1016652,137.765761 L72.1239094,137.765761 L72.3422667,137.76166 C75.3850598,137.647189 77.8165969,135.150426 77.8165969,132.087152 L77.8165969,132.087152 L77.8165969,109.845986 L77.8115004,109.541551 C77.6685287,104.783992 74.5693541,100.60145 70.0250297,99.0814449 Z M111.569765,76.5302554 C110.545552,77.3128403 109.408485,77.9362631 108.197204,78.3793382 C115.666916,80.3681219 120.868435,87.1107591 120.882319,94.822829 L120.882319,94.822829 L120.882319,114.48152 L120.876892,114.674603 C120.77449,116.528332 119.236283,118.000177 117.352853,118.002257 L117.352853,118.002257 L116.516882,118.002257 L116.516882,104.247957 L116.510367,104.111235 C116.441405,103.391327 115.833471,102.828305 115.09371,102.828305 C114.307714,102.828305 113.670538,103.463905 113.670538,104.247957 L113.670538,104.247957 L113.670538,118.002229 L94.5466941,118.002229 L94.5466941,104.247957 L94.5401792,104.111235 C94.4712173,103.391327 93.8632833,102.828305 93.1235222,102.828305 C92.3375261,102.828305 91.7003503,103.463905 91.7003503,104.247957 L91.7003503,104.247957 L91.7003503,118.002229 L90.25566,118.002229 L90.0621006,117.996811 C88.2037948,117.894621 86.7283242,116.360245 86.7261938,114.481491 L86.7261938,114.481491 L86.7261938,95.4429757 L86.7278777,95.0803969 C86.8423897,87.3598712 91.9724633,80.5854915 99.420517,78.3826318 C98.2150593,77.9427646 97.0829371,77.324195 96.0622868,76.5477597 C88.6182022,79.8949213 83.8452581,87.2978581 83.8796632,95.4429757 L83.8796632,95.4429757 L83.8796632,114.48152 L83.88434,114.713558 C84.0052708,117.871561 86.4508297,120.474855 89.628212,120.778444 L89.628212,120.778444 L89.628212,152.082982 L89.6264786,152.317307 C89.6619505,155.896605 92.5365946,158.830257 96.1518612,158.919175 L96.1518612,158.919175 L96.3195108,158.921163 L96.5552587,158.916983 C100.076686,158.793561 102.917139,155.952328 103.004149,152.411504 L103.004149,152.411504 L103.004149,120.841533 L104.889952,120.841533 L104.889952,152.082982 L104.888218,152.317311 C104.923695,155.896665 107.79843,158.83034 111.413757,158.919175 L111.413757,158.919175 L111.581407,158.921163 L111.817154,158.916981 C115.338569,158.793532 118.179006,155.952315 118.266045,152.411504 L118.266045,152.411504 L118.266045,120.749682 L118.505202,120.71117 C121.513817,120.168472 123.723535,117.55426 123.728663,114.48152 L123.728663,114.48152 L123.728663,94.822829 L123.723709,94.4313171 C123.54829,86.6142349 118.803458,79.6038454 111.569765,76.5302554 Z M156.577491,58.0747766 C155.553278,58.8573615 154.41621,59.4807844 153.204929,59.9238594 C160.674695,61.9125806 165.87627,68.6552443 165.89013,76.3673503 L165.89013,76.3673503 L165.89013,105.963607 L165.884699,106.156687 C165.782255,108.010397 164.244075,109.482219 162.360664,109.484344 L162.360664,109.484344 L161.524522,109.484344 L161.524522,92.8907391 L161.518007,92.7540172 C161.449045,92.0341097 160.841111,91.4710869 160.10135,91.4710869 C159.315354,91.4710869 158.678178,92.1066869 158.678178,92.8907391 L158.678178,92.8907391 L158.678178,109.484316 L139.554306,109.484316 L139.554306,92.8907391 L139.547791,92.7540172 C139.478829,92.0341097 138.870895,91.4710869 138.131134,91.4710869 C137.345138,91.4710869 136.707962,92.1066869 136.707962,92.8907391 L136.707962,92.8907391 L136.707962,109.484316 L135.263471,109.484316 L135.06991,109.478902 C133.211585,109.376753 131.73609,107.842351 131.734005,105.963578 L131.734005,105.963578 L131.734005,76.987497 L131.735689,76.6249203 C131.850198,68.9044394 136.980235,62.1300958 144.428243,59.9272382 C143.222781,59.4873412 142.090659,58.8687429 141.070012,58.0922809 C133.625991,61.4395024 128.853098,68.8424121 128.887475,76.987497 L128.887475,76.987497 L128.887475,105.963607 L128.892149,106.195643 C129.013043,109.353631 131.458573,111.956933 134.635938,112.260531 L134.635938,112.260531 L134.635938,152.082982 L134.634208,152.317308 C134.669741,155.896612 137.5444,158.830242 141.159672,158.919175 L141.159672,158.919175 L141.327407,158.921163 L141.563156,158.916985 C145.084598,158.793598 147.925072,155.952344 148.012046,152.411504 L148.012046,152.411504 L148.012046,112.32362 L149.897848,112.32362 L149.897848,152.082982 L149.896115,152.317307 C149.931586,155.896599 152.806222,158.83025 156.421483,158.919175 L156.421483,158.919175 L156.589218,158.921163 L156.824966,158.916984 C160.346396,158.793568 163.186853,155.952331 163.273856,152.411504 L163.273856,152.411504 L163.273856,112.231769 L163.513012,112.193255 C166.521612,111.650531 168.731316,109.036336 168.736474,105.963607 L168.736474,105.963607 L168.736474,76.3673503 L168.731517,75.9758383 C168.556029,68.1587534 163.811179,61.1483853 156.577491,58.0747766 Z M59.9082131,81.3369138 C54.4062402,81.3369138 49.9460098,85.7861134 49.9460098,91.2744793 C49.9460098,96.7628452 54.4062402,101.212045 59.9082131,101.212045 C65.410186,101.212045 69.8704163,96.7628452 69.8704163,91.2744793 C69.8704163,85.7861134 65.410186,81.3369138 59.9082131,81.3369138 Z M59.9082131,84.1762182 C63.8381937,84.1762182 67.0240725,87.354218 67.0240725,91.2744793 C67.0240725,95.1947406 63.8381937,98.3727403 59.9082131,98.3727403 C55.9782324,98.3727403 52.7923536,95.1947406 52.7923536,91.2744793 C52.7967849,87.3560504 55.9800694,84.1806386 59.9082131,84.1762182 Z M103.804256,56.4554787 C98.3022835,56.4554787 93.8420532,60.9046783 93.8420532,66.3930442 C93.8420532,69.0286504 94.8916395,71.5563091 96.759915,73.4199641 C98.6281905,75.2836192 101.162116,76.3306097 103.804256,76.3306097 C109.306229,76.3306097 113.76646,71.8814101 113.76646,66.3930442 C113.76646,60.9046783 109.306229,56.4554787 103.804256,56.4554787 Z M103.804256,59.2947832 C107.734237,59.2947832 110.920116,62.4727829 110.920116,66.3930442 C110.920116,70.3133055 107.734237,73.4913053 103.804256,73.4913053 C99.8742758,73.4913053 96.688397,70.3133055 96.688397,66.3930442 C96.6928283,62.4746153 99.8761128,59.2992035 103.804256,59.2947832 Z M148.812067,38 C143.310095,38 138.849864,42.4491996 138.849864,47.9375655 C138.849864,50.5731717 139.89945,53.1008304 141.767726,54.9644854 C143.636002,56.8281404 146.169927,57.8751309 148.812067,57.8751309 C154.31404,57.8751309 158.774271,53.4259313 158.774271,47.9375655 C158.774271,42.4491996 154.31404,38 148.812067,38 Z M148.812067,40.8393044 C152.742048,40.8393044 155.927927,44.0173041 155.927927,47.9375655 C155.927927,51.8578268 152.742048,55.0358265 148.812067,55.0358265 C144.882087,55.0358265 141.696208,51.8578268 141.696208,47.9375655 C141.700639,44.0191366 144.883924,40.8437248 148.812067,40.8393044 Z" filter="url(#generation-a)"/>
</svg>
