<svg xmlns="http://www.w3.org/2000/svg" width="210" height="210" viewBox="0 0 210 210">
  <defs>
    <filter id="konflikte-a" width="100%" height="100%" x="0%" y="0%" filterUnits="objectBoundingBox">
      <feGaussianBlur in="SourceGraphic"/>
    </filter>
  </defs>
  <path fill="#62FF62" fill-rule="evenodd" d="M105,0 C162.989899,-1.06525716e-14 210,47.0101013 210,105 C210,162.989899 162.989899,210 105,210 C47.0101013,210 7.10171439e-15,162.989899 0,105 C-7.10171439e-15,47.0101013 47.0101013,1.06525716e-14 105,0 Z M101.647139,57 C76.6215359,57 56.2702833,73.9404777 56.2702833,94.7330487 C56.2702833,103.299017 59.7939322,111.625771 66.2421043,118.301399 C61.9513698,131.245934 52.5306858,145.12381 52.4348548,145.267367 C51.8355828,146.10476 51.8595772,147.229267 52.4828433,148.042855 C52.9622906,148.664984 53.6573933,149 54.4004848,149 C54.6641295,149 54.903926,148.952099 55.1675704,148.880247 C68.5433616,144.429829 77.3166387,135.863861 82.5422727,128.949019 C88.5589867,131.269885 94.9591703,132.466243 101.647139,132.466243 C101.941394,132.466243 102.235004,132.463897 102.527945,132.459225 C108.449898,136.382371 115.874066,138.646005 123.668288,138.646005 C128.53434,138.646005 133.209669,137.804841 137.598622,136.122366 C137.687531,136.239264 137.777734,136.356696 137.86924,136.474616 L137.86924,136.474616 L138.433976,137.187635 C142.400804,142.095011 148.587515,147.670654 157.611704,150.783621 C157.92181,150.927825 158.279525,151 158.613508,151 C159.233721,151 159.853934,150.759709 160.307155,150.30304 C161.141968,149.461729 161.213598,148.139836 160.569509,147.202438 L160.569509,147.202438 L160.247631,146.71362 L159.542629,145.614043 L158.947298,144.659725 L158.089611,143.245585 L157.331692,141.956471 L156.731644,140.907919 L156.111829,139.796706 L155.690894,139.024368 L155.266058,138.229101 L154.839275,137.412874 L154.412498,136.577657 L153.987682,135.725417 L153.56678,134.858123 L153.151745,133.977744 L152.744531,133.086248 L152.347093,132.185603 C152.281776,132.034843 152.216948,131.883783 152.15265,131.732465 L152.15265,131.732465 L151.773537,130.821789 C151.711519,130.669602 151.650112,130.51724 151.589356,130.364742 L151.589356,130.364742 L151.232965,129.448463 C151.001017,128.836967 150.780796,128.224621 150.574906,127.61405 C155.297843,122.542566 157.897934,116.269481 157.897934,109.804076 C157.897934,101.349988 153.528981,93.5522811 146.321002,88.2136643 C142.596846,70.512981 123.976727,57 101.647139,57 Z M146.996051,95.1747864 C150.919334,99.316013 153.127243,104.45108 153.127243,109.804076 C153.127243,114.998939 151.021462,120.109596 147.096001,124.324751 L147.096001,124.324751 L145.136647,126.428703 L146.057836,129.16051 L146.348441,129.999766 C147.745414,133.932848 149.709272,138.093934 152.048541,142.325258 L152.048541,142.325258 L152.532292,143.192279 L152.218388,143.007761 C147.938607,140.441103 144.342948,137.087193 141.385239,133.198387 L141.385239,133.198387 L139.223638,130.356307 L135.902241,131.629542 L135.223593,131.881082 C131.589376,133.182359 127.720051,133.839017 123.668288,133.839017 L123.668288,133.839017 L123.088369,133.834268 C118.976205,133.76692 114.978646,132.984941 111.333069,131.600085 C131.464702,127.937236 146.646405,113.109401 146.99391,95.3556614 Z M123.484574,87.6986007 C127.703472,87.6986007 131.13129,91.1201687 131.13129,95.3312279 C131.13129,99.5184828 127.703472,102.964001 123.484574,102.964001 C119.265676,102.964001 115.837858,99.5184828 115.837858,95.3312279 C115.837858,91.1201687 119.265676,87.6986007 123.484574,87.6986007 Z M101.647139,87.6986007 C105.842043,87.6986007 109.293855,91.1201687 109.293855,95.3312279 C109.293855,99.5184828 105.842043,102.964001 101.647139,102.964001 C97.4282407,102.964001 94.0004228,99.5184828 94.0004228,95.3312279 C94.0004228,91.1201687 97.428241,87.6986007 101.647139,87.6986007 Z M79.8095575,87.6986007 C84.0284556,87.6986007 87.4562735,91.1201687 87.4562735,95.3312279 C87.4562735,99.5184828 84.0284554,102.964001 79.8095575,102.964001 C75.5908059,102.964001 72.1628415,99.5184828 72.1628415,95.3312279 C72.1628415,91.1201687 75.5908057,87.6986007 79.8095575,87.6986007 Z" filter="url(#konflikte-a)"/>
</svg>
