<svg xmlns="http://www.w3.org/2000/svg" width="210" height="210" viewBox="0 0 210 210">
  <defs>
    <filter id="positionen-a" width="100%" height="100%" x="0%" y="0%" filterUnits="objectBoundingBox">
      <feGaussianBlur in="SourceGraphic"/>
    </filter>
  </defs>
  <path fill="#62FF62" fill-rule="evenodd" d="M105,0 C162.989899,-1.06525716e-14 210,47.0101013 210,105 C210,162.989899 162.989899,210 105,210 C47.0101013,210 7.10171439e-15,162.989899 0,105 C-7.10171439e-15,47.0101013 47.0101013,1.06525716e-14 105,0 Z M108.1875,24.6875 L103.1875,24.6875 L103.187245,37.360131 C67.5198754,38.1397316 38.6863755,66.649603 37.3893057,102.187185 L25.6875,102.1875 L25.6875,107.1875 L37.3893057,107.187815 C38.6863755,142.725397 67.5198754,171.235268 103.187245,172.014869 L103.1875,184.6875 L108.1875,184.6875 L108.187558,171.941862 C142.927157,170.163215 170.712955,142.05878 171.985694,107.187815 L185.6875,107.1875 L185.6875,102.1875 L171.985694,102.187185 C171.410038,86.4151418 165.410529,72.0273468 155.796943,60.8335742 C154.86174,59.6526207 153.817407,58.5173188 152.66406,57.4281205 C141.21368,45.8051724 125.571234,38.3231719 108.187558,37.4331378 L108.1875,24.6875 Z M111.813,107.187 L120.211015,111.01938 L123.466519,119.683231 L136.188328,108.879865 C136.206455,108.315645 136.226079,107.751461 136.247201,107.187314 L151.542029,107.188427 C152.694586,109.470488 153.705886,111.01938 154.599198,111.01938 C155.598129,111.01938 156.267951,109.439589 156.77038,107.189227 L167.29476,107.188181 C166.027722,139.469562 140.337611,165.477215 108.18795,167.247619 L108.188108,166.026575 C110.346629,162.081729 111.585095,153.944926 111.903508,141.616168 C118.835303,140.049792 122.367853,137.498143 122.501156,133.961222 L122.505077,133.752032 L122.503268,133.282281 C122.460605,127.948549 121.60779,122.336401 114.173555,122.336401 C112.095236,122.336401 110.082326,121.698213 108.186839,120.768466 L108.1875,107.1875 L111.813,107.187 Z M103.1875,107.1875 L103.186869,117.655035 C100.353266,115.616245 98.023702,113.683231 96.4723501,113.683231 C93.1900335,113.683231 85.4261405,115.915425 81.1686076,117.995824 C76.9110748,120.076223 67.0822123,130.650367 76.3678475,143.862144 C80.1576973,144.621476 83.3207255,145.651103 85.8569321,146.951027 L86.2979911,147.183231 L90.1942341,150.114711 C90.3055956,157.822099 92.3983009,163.346362 96.4723501,166.6875 C96.5315894,166.736082 96.5904052,166.784237 96.6488033,166.831964 C66.6500713,162.990337 43.2870456,137.934971 42.0802401,107.188181 L91.2639853,107.188434 C91.7635271,107.224817 92.2755187,107.221237 92.7904791,107.188472 L103.1875,107.1875 Z M103.18682,42.0488689 L103.186817,68.969254 C99.6053034,71.0397478 95.8890444,75.0174063 92.03804,80.9022296 C84.0173595,93.1588471 83.3529129,97.5968371 84.771695,101.107635 L84.8739935,101.351157 C84.9971304,101.633713 85.1332567,101.911187 85.2795288,102.187297 L42.0802401,102.186819 C42.741003,85.3520122 50.0439724,70.2234359 61.441382,59.3488566 C66.1698318,68.2988425 65.646272,78.2470196 63.4235166,86.9228355 C70.4562054,84.9582206 90.4155346,64.2660751 86.1801562,51.6967461 C84.3284417,49.3444908 82.8391084,47.5716953 81.7121563,46.3783595 C88.3864168,43.745768 95.6206944,42.2267061 103.18682,42.0488689 Z M147.83673,99.3619943 L148.144016,99.9931036 L148.144016,99.9931036 L148.446332,100.623808 C148.696207,101.148729 148.940958,101.67136 149.180719,102.187036 L136.473625,102.187962 C136.712355,97.6958375 137.046097,93.2060257 137.474853,88.7185266 C141.650598,88.1777356 145.048645,93.6855663 147.83673,99.3619943 Z M159.87657,91.9418914 C161.020971,91.9418914 163.306314,93.2670193 166.7326,95.9172751 C167.023238,97.9764407 167.211601,100.068117 167.29476,102.186819 L157.584213,102.186351 C157.647629,101.69432 157.709044,101.19977 157.769395,100.707977 L157.863291,99.9398385 C158.376397,95.7357894 158.846878,91.9418914 159.87657,91.9418914 Z M108.18795,42.1273812 C115.562326,42.5334702 122.596842,44.2147673 129.074708,46.9544831 C128.532167,48.3066384 128.145471,50.2892121 127.914073,52.9019066 L127.87485,53.3695113 L115.306328,57.8702913 L112.196619,67.8839987 C110.881063,67.398384 109.544702,67.2072506 108.187535,67.3105986 L108.18795,42.1273812 Z" filter="url(#positionen-a)"/>
</svg>
