<svg xmlns="http://www.w3.org/2000/svg" width="210" height="210" viewBox="0 0 210 210">
  <defs>
    <filter id="systeme-a" width="100%" height="100%" x="0%" y="0%" filterUnits="objectBoundingBox">
      <feGaussianBlur in="SourceGraphic"/>
    </filter>
  </defs>
  <path fill="#62FF62" fill-rule="evenodd" d="M105,0 C162.989899,-1.06525716e-14 210,47.0101013 210,105 C210,162.989899 162.989899,210 105,210 C47.0101013,210 7.10171439e-15,162.989899 0,105 C-7.10171439e-15,47.0101013 47.0101013,1.06525716e-14 105,0 Z M108.5,25 L103.5,25 L103.499745,37.672631 C67.8323754,38.4522316 38.9988755,66.962103 37.7018057,102.499685 L26,102.5 L26,107.5 L37.7018423,107.501316 C38.9994169,143.038432 67.8327103,171.547776 103.499745,172.327369 L103.5,185 L108.5,185 L108.50106,172.254311 C143.239859,170.475192 171.024936,142.371483 172.298158,107.501316 L186,107.5 L186,102.5 L172.298194,102.499685 C171.025467,67.6290549 143.240192,39.5248254 108.50106,37.7456891 L108.5,25 Z M42.3927401,107.500681 L80.623466,107.500281 C81.8127763,119.477537 91.455263,128.967998 103.500466,129.921202 L103.500466,129.921202 L103.500321,167.638655 C70.4218404,166.861685 43.6859552,140.449002 42.3927401,107.500681 Z M108.500845,167.560097 L108.500346,129.821809 C120.07535,128.437366 129.220351,119.143918 130.376534,107.500281 L130.376534,107.500281 L167.60726,107.500681 C166.340227,139.781929 140.650322,165.789502 108.500845,167.560097 Z M106,88 C115.388841,88 123,95.6111593 123,105 C123,114.388841 115.388841,122 106,122 C96.6111593,122 89,114.388841 89,105 C89,95.6111593 96.6111593,88 106,88 Z M167.607299,102.500319 L130.376633,102.500721 C129.220876,90.8566151 120.075682,81.5626737 108.500346,80.1781914 L108.500346,80.1781914 L108.500845,42.439903 C140.650654,44.2105163 166.340758,70.2186079 167.607299,102.500319 Z M103.500321,42.3613454 L103.500466,80.078798 C91.4549272,81.032029 81.8122388,90.5229919 80.6233665,102.500721 L80.6233665,102.500721 L42.3927009,102.500319 C43.6854141,69.5515325 70.4215057,43.138323 103.500321,42.3613454 Z" filter="url(#systeme-a)"/>
</svg>
