<svg xmlns="http://www.w3.org/2000/svg" width="210" height="210" viewBox="0 0 210 210">
  <defs>
    <filter id="zukunft-a" width="100%" height="100%" x="0%" y="0%" filterUnits="objectBoundingBox">
      <feGaussianBlur in="SourceGraphic"/>
    </filter>
  </defs>
  <path fill="#62FF62" fill-rule="evenodd" d="M105,1.8189894e-12 C162.989899,1.80833683e-12 210,47.0101013 210,105 C210,162.989899 162.989899,210 105,210 C47.0101013,210 1.82609112e-12,162.989899 1.8189894e-12,105 C1.81188769e-12,47.0101013 47.0101013,1.82964198e-12 105,1.8189894e-12 Z M88.6755341,41.3351677 C58.4042074,48.8149743 37.6515881,76.662205 39.137535,107.808516 C40.6234819,138.954827 63.932916,164.699919 94.7788353,169.263907 C125.624755,173.827895 155.39077,155.935892 165.832461,126.554404 L159.680984,124.367358 C150.285332,150.824064 123.4896,166.941119 95.7149905,162.841523 C67.9403813,158.741926 46.9437044,135.570601 45.5923339,107.527609 C44.2409634,79.4846167 62.9123059,54.4017198 90.1640199,47.6504464 C117.415734,40.8991731 145.637043,54.3649986 157.533109,79.7956736 L137.172358,74.3427461 L135.489637,80.6476425 L167.012487,89.0971503 L175.460363,57.5661399 L169.155466,55.8834197 L163.472409,77.0863472 C150.28101,48.8323613 118.946861,33.8553611 88.6755341,41.3351677 Z M106.580311,56.7202073 L100.051813,56.7202073 L100.051813,107.174067 L125.659845,129.36443 L129.93601,124.43215 L106.580311,104.193808 L106.580311,56.7202073 Z" filter="url(#zukunft-a)"/>
</svg>
